<svg width="37" height="36" viewBox="0 0 37 36" fill="none" xmlns="http://www.w3.org/2000/svg">
<path d="M15.25 6.75L18.25 3C9.96573 3 3.25 9.71573 3.25 18C3.25 26.2843 9.96573 33 18.25 33C26.5343 33 33.25 26.2843 33.25 18C33.25 11.849 29.5477 6.5628 24.25 4.24813" stroke="white" stroke-width="2.5" stroke-linecap="round" stroke-linejoin="round"/>
<path d="M11.5 15.75L15.25 12.75V23.25" stroke="white" stroke-width="2.5" stroke-linecap="round" stroke-linejoin="round"/>
<path d="M19 20.625V15.375C19 13.9253 20.1753 12.75 21.625 12.75C23.0747 12.75 24.25 13.9253 24.25 15.375V20.625C24.25 22.0747 23.0747 23.25 21.625 23.25C20.1753 23.25 19 22.0747 19 20.625Z" stroke="white" stroke-width="2.5" stroke-linecap="round"/>
</svg>
