<svg width="28" height="28" viewBox="0 0 28 28" fill="none" xmlns="http://www.w3.org/2000/svg">
<path d="M22.8232 8.16667C23.0899 6.64444 21.9185 5.25 20.3731 5.25H7.62866C6.08324 5.25 4.91189 6.64444 5.17862 8.16667" stroke="white" stroke-width="2"/>
<path d="M20.4185 5.25004C20.4516 4.94779 20.4682 4.79662 20.4685 4.67178C20.4711 3.47755 19.5715 2.47412 18.3841 2.3467C18.26 2.33337 18.1079 2.33337 17.8039 2.33337H10.1998C9.89569 2.33337 9.74365 2.33337 9.61951 2.3467C8.4321 2.47412 7.53257 3.47755 7.53516 4.67178C7.53543 4.79662 7.55199 4.94776 7.58509 5.25004" stroke="white" stroke-width="2"/>
<path d="M17.5 21H10.5" stroke="white" stroke-width="2" stroke-linecap="round"/>
<path d="M2.77946 16.0918C2.25909 12.401 1.99891 10.5556 3.10474 9.36109C4.21056 8.16663 6.1792 8.16663 10.1165 8.16663H17.8809C21.8182 8.16663 23.7868 8.16663 24.8927 9.36109C25.9985 10.5556 25.7383 12.401 25.2179 16.0918L24.7245 19.5918C24.3164 22.4861 24.1124 23.9333 23.0656 24.8C22.0189 25.6666 20.4751 25.6666 17.3874 25.6666H10.61C7.52231 25.6666 5.97848 25.6666 4.93176 24.8C3.88504 23.9333 3.681 22.4861 3.27293 19.5918L2.77946 16.0918Z" stroke="white" stroke-width="1.5"/>
</svg>
