<svg width="28" height="28" viewBox="0 0 28 28" fill="none" xmlns="http://www.w3.org/2000/svg">
<path d="M11.082 23.1667C11.6343 23.1667 12.082 22.719 12.082 22.1667C12.082 21.6144 11.6343 21.1667 11.082 21.1667V23.1667ZM12.832 5.83333V6.83333C13.2365 6.83333 13.6011 6.58969 13.7559 6.21602C13.9107 5.84234 13.8251 5.41222 13.5391 5.12623L12.832 5.83333ZM11.2058 2.79289C10.8153 2.40237 10.1821 2.40237 9.79159 2.79289C9.40107 3.18342 9.40107 3.81658 9.79159 4.20711L11.2058 2.79289ZM11.082 21.1667H10.499V23.1667H11.082V21.1667ZM10.4987 6.83333H12.832V4.83333H10.4987V6.83333ZM13.5391 5.12623L11.2058 2.79289L9.79159 4.20711L12.1249 6.54044L13.5391 5.12623ZM1.33203 14C1.33203 19.0627 5.43646 23.1667 10.499 23.1667V21.1667C6.54093 21.1667 3.33203 17.958 3.33203 14H1.33203ZM3.33203 14C3.33203 10.042 6.54066 6.83333 10.4987 6.83333V4.83333C5.43609 4.83333 1.33203 8.93739 1.33203 14H3.33203Z" fill="white"/>
<path d="M15.168 22.1667V21.1667C14.7635 21.1667 14.3989 21.4103 14.2441 21.784C14.0893 22.1577 14.1749 22.5878 14.4609 22.8738L15.168 22.1667ZM16.7942 25.2071C17.1847 25.5977 17.8179 25.5977 18.2084 25.2071C18.5989 24.8166 18.5989 24.1835 18.2084 23.7929L16.7942 25.2071ZM16.918 4.83337C16.3657 4.83337 15.918 5.28109 15.918 5.83337C15.918 6.38566 16.3657 6.83337 16.918 6.83337V4.83337ZM17.5013 21.1667H15.168V23.1667H17.5013V21.1667ZM14.4609 22.8738L16.7942 25.2071L18.2084 23.7929L15.8751 21.4596L14.4609 22.8738ZM16.918 6.83337H17.5013V4.83337H16.918V6.83337ZM24.668 14C24.668 17.9581 21.4593 21.1667 17.5013 21.1667V23.1667C22.5639 23.1667 26.668 19.0627 26.668 14H24.668ZM26.668 14C26.668 8.93743 22.5639 4.83337 17.5013 4.83337V6.83337C21.4593 6.83337 24.668 10.042 24.668 14H26.668Z" fill="white"/>
<path d="M12.25 13.4166L14 11.6666V16.3333" stroke="white" stroke-width="2" stroke-linecap="round" stroke-linejoin="round"/>
</svg>
