<svg width="37" height="36" viewBox="0 0 37 36" fill="none" xmlns="http://www.w3.org/2000/svg">
<path d="M21.75 6.75L18.75 3C27.0343 3 33.75 9.71573 33.75 18C33.75 26.2843 27.0343 33 18.75 33C10.4657 33 3.75 26.2843 3.75 18C3.75 11.849 7.45229 6.5628 12.75 4.24813" stroke="white" stroke-width="2.5" stroke-linecap="round" stroke-linejoin="round"/>
<path d="M12 15.75L15.75 12.75V23.25" stroke="white" stroke-width="2.5" stroke-linecap="round" stroke-linejoin="round"/>
<path d="M19.5 20.625V15.375C19.5 13.9253 20.6753 12.75 22.125 12.75C23.5747 12.75 24.75 13.9253 24.75 15.375V20.625C24.75 22.0747 23.5747 23.25 22.125 23.25C20.6753 23.25 19.5 22.0747 19.5 20.625Z" stroke="white" stroke-width="2.5" stroke-linecap="round"/>
</svg>
